<?xml version="1.0" encoding="UTF-8" standalone="no"?>
<!DOCTYPE svg PUBLIC "-//W3C//DTD SVG 1.1//EN" "http://www.w3.org/Graphics/SVG/1.1/DTD/svg11.dtd">
<svg width="100%" height="100%" viewBox="0 0 374 313" version="1.1" xmlns="http://www.w3.org/2000/svg" xmlns:xlink="http://www.w3.org/1999/xlink" xml:space="preserve" xmlns:serif="http://www.serif.com/" style="fill-rule:evenodd;clip-rule:evenodd;stroke-miterlimit:10;">
    <g transform="matrix(1,0,0,1,-459,-35.3908)">
        <g>
            <g transform="matrix(0.828157,0,0,0.828157,51.379,16.3982)">
                <text x="486.94px" y="398.53px" style="font-family:'Consolas', monospace;font-size:171.082px;fill:rgb(40,165,218);">tools</text>
            </g>
            <g id="mit_scratch-official" transform="matrix(1.45821,0,0,1.45821,645.65,181.447)">
                <g transform="matrix(1,0,0,1,-128,-40.4732)">
                    <clipPath id="_clip1">
                        <rect x="0" y="0" width="256" height="80.946"/>
                    </clipPath>
                    <g clip-path="url(#_clip1)">
                        <g transform="matrix(0.322927,0,0,0.322927,-1.17028,-1.72249)">
                            <g>
                                <path d="M50.106,242.268C31.228,242.268 15.394,227.477 14.06,208.606C14.047,208.36 14.037,208.106 14.018,207.856C13.71,201.797 13.305,190.001 14.039,176.706C14.533,168.034 14.752,153.446 14.759,152.923C14.76,152.884 14.76,152.855 14.76,152.816C14.889,143.873 18.325,135.682 23.887,129.411C21.133,119.806 20.239,108.354 21.956,94.867L22.217,92.753C23.193,84.765 24.647,72.927 30.662,61.536C39.756,44.336 56.423,34.464 76.385,34.464C77.533,34.464 78.725,34.496 79.939,34.567C81.727,34.666 83.683,34.879 85.77,35.248C92.151,29.619 100.532,26.193 109.684,26.193L110.052,26.193C129.85,26.439 145.888,42.722 145.788,62.505C145.788,62.638 145.787,62.776 145.785,62.908C145.779,63.347 143.973,113.909 143.428,117.504C143.388,117.754 143.347,118 143.305,118.246C142.828,120.935 142.051,123.507 141.032,125.94C149.771,136.213 154.493,148.978 154.65,163.398C154.839,181.535 146.541,199.148 131.871,211.712C119.282,222.511 103.304,228.446 86.901,228.446L86.898,228.446C84.239,228.446 81.583,228.3 78.94,227.985C78.401,228.692 77.828,229.391 77.235,230.061C70.844,237.29 62.009,241.604 52.367,242.196C51.725,242.241 50.908,242.268 50.106,242.268Z" style="fill:none;stroke:rgb(40,165,218);stroke-width:20px;"/>
                                <path d="M77.193,126.732C68.091,125.31 63.273,119.25 65.666,100.41L65.955,98.135C67.975,81.749 69.709,78.165 77.523,78.568C79.86,78.715 82.515,80.162 85.186,82.343C87.594,85.181 93.107,88.866 96.142,96.191C98.367,101.527 99.125,105.006 99.406,108.756C99.432,108.876 99.935,113.354 99.935,113.354L99.94,113.351C100.54,116.485 103.002,119.07 106.328,119.67C110.624,120.439 114.757,117.579 115.534,113.27C115.6,112.778 117.56,63.196 117.572,62.374C117.597,58.009 114.075,54.456 109.707,54.407C105.304,54.399 101.737,57.928 101.718,62.316C101.718,62.408 101.68,69.213 101.557,76.126C95.341,69.33 87.318,63.243 78.397,62.74C54.386,61.422 51.78,83.474 50.221,96.2L49.942,98.433C46.75,123.501 55.106,139.347 74.761,142.417C96.144,145.786 110.423,150.702 110.558,163.858C110.613,168.94 107.945,174.184 103.222,178.233C97.595,183.059 89.984,185.215 82.898,184.022C80.695,183.667 78.598,183.11 76.634,182.409C73.794,180.864 66.755,176.587 63.177,171.626C60.153,167.442 59.125,160.862 58.79,156.704C58.831,154.85 58.852,153.61 58.86,153.442C58.909,149.083 55.418,145.495 51.036,145.411C46.659,145.331 43.032,148.829 42.975,153.229C42.975,153.379 42.737,168.895 42.217,178.254C41.387,193.311 42.195,206.086 42.217,206.629C42.521,211.006 46.275,214.33 50.649,214.039C55.041,213.766 58.334,209.986 58.066,205.627C58.066,205.51 57.664,199.373 57.721,190.787C63.516,194.517 71.116,198.135 80.286,199.683C92.113,201.66 104.23,198.247 113.526,190.281C121.825,183.181 126.538,173.48 126.437,163.693C126.117,134.392 93.1,129.235 77.193,126.732Z" style="fill:none;stroke:rgb(40,165,218);stroke-width:20px;"/>
                                <path d="M323.923,234.866C317.059,234.858 310.158,233.479 302.851,230.641C296.379,228.139 291.218,224.329 287.179,220.274C284.5,221.364 281.679,222.139 278.744,222.567L240.468,228.182C238.668,228.436 236.945,228.559 235.233,228.559C217.367,228.559 201.984,215.223 199.448,197.53C198.061,188.102 200.457,178.577 206.224,170.827C209.113,166.942 212.671,163.749 216.701,161.345L216.675,155.816C209.32,149.193 204.678,139.595 204.678,128.939C204.678,121.106 207.186,113.848 211.432,107.915C202.906,102.381 196.762,93.341 195.252,82.713C193.855,73.352 196.247,63.793 202.029,56.013C207.808,48.247 216.259,43.21 225.848,41.827C233.841,40.649 249.979,38.638 267.153,38.638C305.263,38.638 329.525,48.399 341.308,68.477C347.461,78.978 354.475,100.091 336.1,127.307C337.832,132.878 339.129,139.067 340.012,145.997L340.384,145.997C343.983,145.997 347.552,146.526 350.994,147.591C370.109,153.503 380.809,173.792 374.926,192.837C369.188,211.333 360.047,222.784 345.277,229.978C338.504,233.246 331.365,234.867 323.935,234.867C323.936,234.866 323.936,234.866 323.923,234.866Z" style="fill:none;stroke:rgb(40,165,218);stroke-width:20px;"/>
                                <path d="M342.729,174.561C338.528,173.272 334.066,175.635 332.799,179.799C329.9,189.221 327.587,189.572 325.976,190.338C324.385,191.108 322.233,190.881 318.785,189.539C318.255,189.225 316.818,187.359 315.998,185.619C314.761,182.959 313.306,171.91 313.169,165.601C312.56,142.306 308.511,129.504 301.969,122.443C306.385,119.541 309.599,115.77 309.956,115.293C310.014,115.231 310.062,115.183 310.118,115.104C319.847,102.491 322.15,91.593 316.98,82.753C304.008,60.666 247.028,67.218 229.875,69.752C225.523,70.379 222.542,74.43 223.197,78.756C223.806,83.11 227.848,86.088 232.182,85.432C236.247,84.837 240.409,84.343 244.591,83.955L244.748,120.895C243.428,120.974 242.117,121.014 240.824,121.014C236.449,121.014 232.892,124.543 232.892,128.937C232.892,133.3 236.449,136.873 240.824,136.873C242.144,136.873 243.47,136.836 244.826,136.777L244.993,182.959L234.072,184.549C229.738,185.182 226.74,189.225 227.385,193.539C227.999,197.889 232.034,200.887 236.366,200.266L274.65,194.647C278.969,194.014 281.98,189.993 281.339,185.672C280.711,181.318 276.664,178.322 272.347,178.928L260.855,180.631L260.647,135.113C268.219,133.888 275.428,132.251 281.451,130.416L281.464,130.416C281.507,130.404 283.205,130.188 284.252,130.37C287.444,130.912 289.2,131.492 291.043,134.103C293.626,137.705 296.81,146.176 297.301,166.008C297.398,169.83 298.407,185.465 301.618,192.336C302.618,194.51 306.458,201.779 313.076,204.338C317.948,206.242 325.295,208.277 332.917,204.615C339.958,201.181 344.338,196.193 347.969,184.498C349.266,180.305 346.908,175.856 342.729,174.561ZM297.625,103.725C296.919,104.55 294.895,106.687 292.789,107.942C290.839,109.088 288.174,109.883 285.602,110.671L281.57,111.957C275.977,113.947 268.573,116.029 260.61,117.489L260.464,81.403C281.444,80.825 299.751,83.177 303.289,89.237C303.616,89.757 303.755,90.422 303.755,91.21C303.754,94.107 301.597,98.583 297.625,103.725Z" style="fill:none;stroke:rgb(40,165,218);stroke-width:20px;"/>
                                <path d="M592.141,233.284C551.253,233.284 527.833,202.54 525.851,172.18L525.864,172.18C525.772,170.27 525.69,166.414 525.481,156.284C525.478,155.958 525.47,155.641 525.478,155.315C525.734,136.618 525.782,132.98 525.864,131.559L525.861,131.559C527.92,102.46 537.983,82.159 555.785,71.213C564.227,65.984 573.865,63.327 584.356,63.327C587.949,63.327 591.379,63.641 594.567,64.148C601.189,56.666 610.874,51.937 621.638,51.937C641.576,51.937 657.796,68.151 657.796,88.075L657.796,122.456C657.796,126.561 657.095,130.545 655.789,134.279C660.762,140.166 663.899,147.635 664.282,155.783C664.498,158.539 664.617,160.304 664.528,162.16C664.252,171.408 664.238,171.502 664.098,172.765C664.077,173.066 664.039,173.38 663.988,173.677C663.151,179.689 660.969,191.116 655.856,200.089C652.563,205.839 649.141,209.985 645.923,213.62C639.446,220.915 631.995,224.97 625.545,227.983C614.79,233.04 605.514,233.135 598.73,233.204L594.456,233.249C593.68,233.268 592.9,233.284 592.141,233.284Z" style="fill:none;stroke:rgb(40,165,218);stroke-width:20px;"/>
                                <path d="M628.039,149.606C623.721,149.661 620.263,153.21 620.263,157.536C620.263,157.579 620.475,160.1 620.475,160.421C620.475,160.739 620.304,167.005 620.278,167.894C619.774,171.173 618.623,176.398 617.549,178.255C616.358,180.337 615.113,181.9 612.905,184.417C611.663,185.829 608.646,187.235 606.844,188.097C604.807,189.036 602.843,189.074 598.23,189.124L593.405,189.186C572.773,189.85 570.167,173.067 569.835,169.393C569.825,168.85 569.586,156.057 569.586,155.78C569.586,155.528 569.825,135.107 569.835,134.524C570.83,120.896 574.042,111.731 578.887,108.769C582.621,106.441 588.588,107.071 597.14,110.636C607.662,115.024 614.82,126.5 614.896,126.592C616.751,129.612 620.401,131.017 623.802,130.073C627.222,129.106 629.581,126.014 629.581,122.456L629.581,88.075C629.581,83.715 626.042,80.152 621.638,80.152C617.285,80.152 613.699,83.715 613.699,88.075L613.699,102.201C610.628,99.81 607.119,97.618 603.238,95.993C598.231,93.899 583.005,87.555 570.564,95.241C560.819,101.237 555.409,113.776 554,133.555C553.99,133.699 553.692,155.701 553.692,155.701C553.692,155.701 553.99,170.24 554,170.34C554.821,182.752 564.218,205.994 593.896,205.041L598.348,204.992C603.713,204.945 608.323,204.91 613.591,202.435C617.346,200.673 621.638,198.47 624.798,194.921C627.082,192.337 629.291,189.7 631.343,186.12C634.39,180.774 635.798,171.546 636.045,169.766C636.078,169.479 636.335,160.719 636.335,160.719C636.359,160.596 636.112,157.401 636.112,157.401C636.045,153.042 632.44,149.53 628.039,149.606Z" style="fill:none;stroke:rgb(40,165,218);stroke-width:20px;"/>
                                <path d="M704.883,245.999C696.362,245.999 688.179,242.798 681.856,236.979C679.309,234.653 677.175,232.043 675.459,229.225L645.641,228.725C625.773,228.381 609.835,211.957 610.091,192.12C610.34,177.649 619.136,165.202 631.538,159.595L631.637,104.184C619.259,98.437 610.642,85.888 610.642,71.353C610.642,51.424 626.858,35.205 646.784,35.205L680.77,35.205C687.26,27.327 697.034,22.201 708.027,21.986C708.027,21.986 749.814,21.271 749.978,21.271C769.585,21.271 785.804,37.216 786.137,56.826C786.351,71.14 778.219,83.659 766.266,89.713C766.508,128.976 766.652,153.648 766.726,169.903C777.683,175.555 785.462,186.674 786.3,199.729C787.572,219.633 772.438,236.862 752.553,238.133C736.15,239.207 725.686,241.063 722.752,241.895C722.18,242.131 721.609,242.344 721.024,242.532C717.398,243.913 711.924,245.999 704.883,245.999Z" style="fill:none;stroke:rgb(40,165,218);stroke-width:20px;"/>
                                <path d="M415.525,204.538C407.673,204.534 400.198,202.052 393.91,197.335C392.546,196.333 391.273,195.243 390.079,194.087C385.584,196.081 380.606,197.196 375.385,197.196C374.842,197.196 374.3,197.184 373.754,197.157L334.194,195.284C314.314,194.36 298.863,177.427 299.763,157.546C300.634,138.212 316.496,123.044 335.89,123.044C336.054,123.044 336.221,123.044 336.387,123.047C338.203,113.948 342.634,91.731 342.848,90.661C329.749,86.534 319.676,75.123 317.789,60.945C315.198,41.204 329.099,23.014 348.756,20.336L382.716,15.667C384.33,15.448 385.984,15.334 387.607,15.334C397.56,15.334 407.171,19.501 413.996,26.779C416.478,29.41 420.048,34.577 421.96,39.146L451.765,111.189C451.905,111.521 452.066,111.897 452.244,112.335C452.336,112.334 452.439,112.334 452.528,112.334C467.741,112.334 481.416,121.948 486.562,136.272C493.244,154.992 483.508,175.701 464.866,182.479C452.955,186.733 445.329,190.635 442.577,192.375C435.765,200.041 425.869,204.539 415.528,204.539C415.528,204.538 415.528,204.538 415.525,204.538Z" style="fill:none;stroke:rgb(40,165,218);stroke-width:20px;"/>
                                <path d="M449.861,141.012C447.511,141.846 442.966,144.127 435.916,147.225C435.916,147.225 426.064,122.649 425.715,122.04L395.888,49.927C395.591,49.158 393.927,46.619 393.413,46.073C391.649,44.191 389.091,43.267 386.557,43.619L352.554,48.294C348.212,48.884 345.194,52.883 345.757,57.215C346.339,61.569 350.323,64.591 354.674,64.033C354.674,64.033 367.33,62.214 377.585,60.829C374.645,75.29 362.933,134.405 359.261,152.379L336.247,151.262C331.876,151.073 328.148,154.442 327.947,158.832C327.758,163.199 331.157,166.894 335.529,167.098L375.018,168.971C379.389,169.16 383.103,165.783 383.322,161.424C383.519,157.024 380.962,153.063 375.306,153.063L377.121,140.969L413.809,134.889L421.663,154.309C415.683,157.731 411.948,159.893 409.151,163.647C406.537,167.184 407.287,172.141 410.813,174.743C414.307,177.366 419.292,176.628 421.916,173.106C425.441,168.352 440.427,161.252 455.226,155.956C459.34,154.466 461.477,149.915 460.003,145.798C458.529,141.69 453.971,139.538 449.861,141.012ZM380.505,128.227L390.234,80.607L407.682,123.719L380.505,128.227Z" style="fill:none;stroke:rgb(40,165,218);stroke-width:20px;"/>
                                <path d="M471.605,227.219C452.021,227.219 435.802,211.26 435.464,191.655C435.221,175.598 445.493,161.809 459.886,156.864L459.865,146.184C458.795,146.442 457.704,146.655 456.602,146.821C454.825,147.094 453.008,147.229 451.227,147.229C433.203,147.229 418.177,134.282 415.495,116.457L409.445,77.543C407.84,67.23 410.815,56.708 417.61,48.692C424.305,40.711 434.239,36.033 444.775,35.913L495.251,35.069C519.776,34.604 541.66,33.058 542.84,32.976C543.009,32.952 543.179,32.942 543.354,32.934C544.134,32.887 544.916,32.855 545.689,32.855C555.36,32.855 564.764,36.798 571.503,43.671C578.763,50.963 582.552,61.267 581.755,71.766C581.074,80.761 580.859,94.983 580.828,98.432C581.231,113.071 573.226,126.316 560.194,132.391C555.373,134.662 549.915,135.906 544.519,135.906C540.23,135.906 536.041,135.123 532.147,133.68L532.191,156.37C545.904,161.388 555.844,174.505 556.056,189.854C556.207,199.514 552.551,208.674 545.777,215.608C539.014,222.532 529.965,226.407 520.292,226.495C520.293,226.497 471.739,227.219 471.605,227.219Z" style="fill:none;stroke:rgb(40,165,218);stroke-width:20px;"/>
                                <path d="M545.174,61.084C544.928,61.118 521.698,62.784 495.721,63.283L445.094,64.128C442.793,64.145 440.624,65.152 439.144,66.931C437.661,68.662 436.98,70.957 437.325,73.217L443.391,112.258C444.051,116.592 448.079,119.569 452.412,118.928C456.354,118.336 459.169,114.948 459.169,111.084C459.169,110.72 455.981,90.728 454.368,79.851C456.427,79.841 487.951,79.277 487.951,79.277L488.156,182.906L471.485,183.121C467.109,183.197 463.607,186.805 463.672,191.164C463.758,195.562 467.341,199.06 471.705,199.006L520.029,198.283C524.403,198.242 527.911,194.607 527.853,190.244C527.785,185.849 524.18,182.377 519.807,182.41L504.026,182.652L503.821,78.97C517.482,78.589 529.175,77.939 537.188,77.501C536.785,84.094 536.589,89.066 536.589,92.681C536.589,101.165 537.496,102.775 538.187,103.971C540.205,107.638 544.486,108.61 548.272,106.821C551.218,105.453 552.798,102.147 552.611,98.902C552.603,98.769 552.761,80.997 553.624,69.635C553.794,67.317 552.983,65.062 551.35,63.419C549.742,61.778 547.462,60.942 545.174,61.084Z" style="fill:none;stroke:rgb(40,165,218);stroke-width:20px;"/>
                                <path d="M175.126,243.215C134.42,243.205 111.007,212.793 108.765,182.578C108.696,181.656 108.669,180.877 108.663,180.258L108.375,165.59C108.375,165.463 108.663,143.623 108.663,143.623C108.665,142.943 108.697,142.187 108.75,141.408C110.842,112.332 120.911,92.04 138.686,81.105C147.163,75.881 156.784,73.233 167.252,73.233C170.848,73.233 174.281,73.558 177.47,74.063C184.097,66.569 193.782,61.836 204.553,61.836C224.489,61.836 240.696,78.055 240.696,97.993L240.696,132.343C240.696,136.045 240.131,139.652 239.057,143.072C243.888,148.988 246.9,156.449 247.19,164.57L247.412,168.742C247.444,169.248 247.454,169.758 247.454,170.273C247.454,170.363 247.349,180.017 246.859,183.658L246.861,183.658C245.804,191.047 243.538,201.631 238.729,210.029C235.411,215.857 231.918,220.004 228.904,223.441C222.296,230.834 214.865,234.882 208.444,237.88C197.707,242.948 188.411,243.034 181.623,243.099L177.481,243.181C176.698,243.202 175.913,243.216 175.133,243.216C175.13,243.215 175.128,243.215 175.126,243.215Z" style="fill:none;stroke:rgb(40,165,218);stroke-width:20px;"/>
                                <path d="M210.958,157.924C206.61,158.004 203.155,161.559 203.155,165.869C203.155,165.912 203.372,169.996 203.372,170.33C203.368,170.652 203.197,176.875 203.17,177.787C202.67,181.064 201.53,186.289 200.454,188.146C199.269,190.232 197.942,191.876 195.786,194.3C194.557,195.72 191.547,197.142 189.737,197.966C187.705,198.927 185.758,198.972 181.145,199.017L176.301,199.095C155.668,199.728 153.071,182.993 152.738,179.292C152.731,178.749 152.473,165.937 152.451,165.687C152.473,165.423 152.738,144.998 152.738,144.414C153.737,130.789 156.936,121.623 161.788,118.665C165.506,116.333 171.481,116.969 180.027,120.529C190.549,124.934 197.728,136.376 197.773,136.499C199.641,139.504 203.291,140.946 206.699,139.965C210.12,139.008 212.483,135.906 212.483,132.342L212.483,97.992C212.483,93.606 208.923,90.05 204.555,90.05C200.154,90.05 196.616,93.606 196.616,97.992L196.616,112.093C193.533,109.704 190.035,107.495 186.135,105.888C181.145,103.8 165.909,97.472 153.474,105.134C143.731,111.125 138.311,123.665 136.89,143.453C136.879,143.609 136.879,143.758 136.879,143.885L136.59,165.59L136.59,165.869L136.879,179.885C136.879,180.012 136.879,180.127 136.89,180.227C137.72,192.665 147.108,215.866 176.792,214.977L181.247,214.887C186.604,214.836 191.223,214.813 196.491,212.33C200.264,210.568 204.522,208.379 207.706,204.812C209.988,202.224 212.208,199.591 214.24,196.021C217.296,190.673 218.68,181.445 218.934,179.666C218.978,179.365 219.241,170.377 219.241,170.271L219.004,165.742C218.933,161.358 215.321,157.842 210.958,157.924Z" style="fill:none;stroke:rgb(40,165,218);stroke-width:20px;"/>
                            </g>
                            <g>
                                <g>
                                    <path d="M50.106,242.268C31.228,242.268 15.394,227.477 14.06,208.606C14.047,208.36 14.037,208.106 14.018,207.856C13.71,201.797 13.305,190.001 14.039,176.706C14.533,168.034 14.752,153.446 14.759,152.923C14.76,152.884 14.76,152.855 14.76,152.816C14.889,143.873 18.325,135.682 23.887,129.411C21.133,119.806 20.239,108.354 21.956,94.867L22.217,92.753C23.193,84.765 24.647,72.927 30.662,61.536C39.756,44.336 56.423,34.464 76.385,34.464C77.533,34.464 78.725,34.496 79.939,34.567C81.727,34.666 83.683,34.879 85.77,35.248C92.151,29.619 100.532,26.193 109.684,26.193L110.052,26.193C129.85,26.439 145.888,42.722 145.788,62.505C145.788,62.638 145.787,62.776 145.785,62.908C145.779,63.347 143.973,113.909 143.428,117.504C143.388,117.754 143.347,118 143.305,118.246C142.828,120.935 142.051,123.507 141.032,125.94C149.771,136.213 154.493,148.978 154.65,163.398C154.839,181.535 146.541,199.148 131.871,211.712C119.282,222.511 103.304,228.446 86.901,228.446L86.898,228.446C84.239,228.446 81.583,228.3 78.94,227.985C78.401,228.692 77.828,229.391 77.235,230.061C70.844,237.29 62.009,241.604 52.367,242.196C51.725,242.241 50.908,242.268 50.106,242.268Z" style="fill:rgb(247,248,249);fill-rule:nonzero;"/>
                                    <path d="M77.193,126.732C68.091,125.31 63.273,119.25 65.666,100.41L65.955,98.135C67.975,81.749 69.709,78.165 77.523,78.568C79.86,78.715 82.515,80.162 85.186,82.343C87.594,85.181 93.107,88.866 96.142,96.191C98.367,101.527 99.125,105.006 99.406,108.756C99.432,108.876 99.935,113.354 99.935,113.354L99.94,113.351C100.54,116.485 103.002,119.07 106.328,119.67C110.624,120.439 114.757,117.579 115.534,113.27C115.6,112.778 117.56,63.196 117.572,62.374C117.597,58.009 114.075,54.456 109.707,54.407C105.304,54.399 101.737,57.928 101.718,62.316C101.718,62.408 101.68,69.213 101.557,76.126C95.341,69.33 87.318,63.243 78.397,62.74C54.386,61.422 51.78,83.474 50.221,96.2L49.942,98.433C46.75,123.501 55.106,139.347 74.761,142.417C96.144,145.786 110.423,150.702 110.558,163.858C110.613,168.94 107.945,174.184 103.222,178.233C97.595,183.059 89.984,185.215 82.898,184.022C80.695,183.667 78.598,183.11 76.634,182.409C73.794,180.864 66.755,176.587 63.177,171.626C60.153,167.442 59.125,160.862 58.79,156.704C58.831,154.85 58.852,153.61 58.86,153.442C58.909,149.083 55.418,145.495 51.036,145.411C46.659,145.331 43.032,148.829 42.975,153.229C42.975,153.379 42.737,168.895 42.217,178.254C41.387,193.311 42.195,206.086 42.217,206.629C42.521,211.006 46.275,214.33 50.649,214.039C55.041,213.766 58.334,209.986 58.066,205.627C58.066,205.51 57.664,199.373 57.721,190.787C63.516,194.517 71.116,198.135 80.286,199.683C92.113,201.66 104.23,198.247 113.526,190.281C121.825,183.181 126.538,173.48 126.437,163.693C126.117,134.392 93.1,129.235 77.193,126.732Z" style="fill:rgb(247,248,249);fill-rule:nonzero;"/>
                                    <path d="M323.923,234.866C317.059,234.858 310.158,233.479 302.851,230.641C296.379,228.139 291.218,224.329 287.179,220.274C284.5,221.364 281.679,222.139 278.744,222.567L240.468,228.182C238.668,228.436 236.945,228.559 235.233,228.559C217.367,228.559 201.984,215.223 199.448,197.53C198.061,188.102 200.457,178.577 206.224,170.827C209.113,166.942 212.671,163.749 216.701,161.345L216.675,155.816C209.32,149.193 204.678,139.595 204.678,128.939C204.678,121.106 207.186,113.848 211.432,107.915C202.906,102.381 196.762,93.341 195.252,82.713C193.855,73.352 196.247,63.793 202.029,56.013C207.808,48.247 216.259,43.21 225.848,41.827C233.841,40.649 249.979,38.638 267.153,38.638C305.263,38.638 329.525,48.399 341.308,68.477C347.461,78.978 354.475,100.091 336.1,127.307C337.832,132.878 339.129,139.067 340.012,145.997L340.384,145.997C343.983,145.997 347.552,146.526 350.994,147.591C370.109,153.503 380.809,173.792 374.926,192.837C369.188,211.333 360.047,222.784 345.277,229.978C338.504,233.246 331.365,234.867 323.935,234.867C323.936,234.866 323.936,234.866 323.923,234.866Z" style="fill:rgb(247,248,249);fill-rule:nonzero;"/>
                                    <path d="M342.729,174.561C338.528,173.272 334.066,175.635 332.799,179.799C329.9,189.221 327.587,189.572 325.976,190.338C324.385,191.108 322.233,190.881 318.785,189.539C318.255,189.225 316.818,187.359 315.998,185.619C314.761,182.959 313.306,171.91 313.169,165.601C312.56,142.306 308.511,129.504 301.969,122.443C306.385,119.541 309.599,115.77 309.956,115.293C310.014,115.231 310.062,115.183 310.118,115.104C319.847,102.491 322.15,91.593 316.98,82.753C304.008,60.666 247.028,67.218 229.875,69.752C225.523,70.379 222.542,74.43 223.197,78.756C223.806,83.11 227.848,86.088 232.182,85.432C236.247,84.837 240.409,84.343 244.591,83.955L244.748,120.895C243.428,120.974 242.117,121.014 240.824,121.014C236.449,121.014 232.892,124.543 232.892,128.937C232.892,133.3 236.449,136.873 240.824,136.873C242.144,136.873 243.47,136.836 244.826,136.777L244.993,182.959L234.072,184.549C229.738,185.182 226.74,189.225 227.385,193.539C227.999,197.889 232.034,200.887 236.366,200.266L274.65,194.647C278.969,194.014 281.98,189.993 281.339,185.672C280.711,181.318 276.664,178.322 272.347,178.928L260.855,180.631L260.647,135.113C268.219,133.888 275.428,132.251 281.451,130.416L281.464,130.416C281.507,130.404 283.205,130.188 284.252,130.37C287.444,130.912 289.2,131.492 291.043,134.103C293.626,137.705 296.81,146.176 297.301,166.008C297.398,169.83 298.407,185.465 301.618,192.336C302.618,194.51 306.458,201.779 313.076,204.338C317.948,206.242 325.295,208.277 332.917,204.615C339.958,201.181 344.338,196.193 347.969,184.498C349.266,180.305 346.908,175.856 342.729,174.561ZM297.625,103.725C296.919,104.55 294.895,106.687 292.789,107.942C290.839,109.088 288.174,109.883 285.602,110.671L281.57,111.957C275.977,113.947 268.573,116.029 260.61,117.489L260.464,81.403C281.444,80.825 299.751,83.177 303.289,89.237C303.616,89.757 303.755,90.422 303.755,91.21C303.754,94.107 301.597,98.583 297.625,103.725Z" style="fill:rgb(247,248,249);fill-rule:nonzero;"/>
                                    <path d="M592.141,233.284C551.253,233.284 527.833,202.54 525.851,172.18L525.864,172.18C525.772,170.27 525.69,166.414 525.481,156.284C525.478,155.958 525.47,155.641 525.478,155.315C525.734,136.618 525.782,132.98 525.864,131.559L525.861,131.559C527.92,102.46 537.983,82.159 555.785,71.213C564.227,65.984 573.865,63.327 584.356,63.327C587.949,63.327 591.379,63.641 594.567,64.148C601.189,56.666 610.874,51.937 621.638,51.937C641.576,51.937 657.796,68.151 657.796,88.075L657.796,122.456C657.796,126.561 657.095,130.545 655.789,134.279C660.762,140.166 663.899,147.635 664.282,155.783C664.498,158.539 664.617,160.304 664.528,162.16C664.252,171.408 664.238,171.502 664.098,172.765C664.077,173.066 664.039,173.38 663.988,173.677C663.151,179.689 660.969,191.116 655.856,200.089C652.563,205.839 649.141,209.985 645.923,213.62C639.446,220.915 631.995,224.97 625.545,227.983C614.79,233.04 605.514,233.135 598.73,233.204L594.456,233.249C593.68,233.268 592.9,233.284 592.141,233.284Z" style="fill:rgb(247,248,249);fill-rule:nonzero;"/>
                                    <path d="M628.039,149.606C623.721,149.661 620.263,153.21 620.263,157.536C620.263,157.579 620.475,160.1 620.475,160.421C620.475,160.739 620.304,167.005 620.278,167.894C619.774,171.173 618.623,176.398 617.549,178.255C616.358,180.337 615.113,181.9 612.905,184.417C611.663,185.829 608.646,187.235 606.844,188.097C604.807,189.036 602.843,189.074 598.23,189.124L593.405,189.186C572.773,189.85 570.167,173.067 569.835,169.393C569.825,168.85 569.586,156.057 569.586,155.78C569.586,155.528 569.825,135.107 569.835,134.524C570.83,120.896 574.042,111.731 578.887,108.769C582.621,106.441 588.588,107.071 597.14,110.636C607.662,115.024 614.82,126.5 614.896,126.592C616.751,129.612 620.401,131.017 623.802,130.073C627.222,129.106 629.581,126.014 629.581,122.456L629.581,88.075C629.581,83.715 626.042,80.152 621.638,80.152C617.285,80.152 613.699,83.715 613.699,88.075L613.699,102.201C610.628,99.81 607.119,97.618 603.238,95.993C598.231,93.899 583.005,87.555 570.564,95.241C560.819,101.237 555.409,113.776 554,133.555C553.99,133.699 553.692,155.701 553.692,155.701C553.692,155.701 553.99,170.24 554,170.34C554.821,182.752 564.218,205.994 593.896,205.041L598.348,204.992C603.713,204.945 608.323,204.91 613.591,202.435C617.346,200.673 621.638,198.47 624.798,194.921C627.082,192.337 629.291,189.7 631.343,186.12C634.39,180.774 635.798,171.546 636.045,169.766C636.078,169.479 636.335,160.719 636.335,160.719C636.359,160.596 636.112,157.401 636.112,157.401C636.045,153.042 632.44,149.53 628.039,149.606Z" style="fill:rgb(247,248,249);fill-rule:nonzero;"/>
                                    <path d="M704.883,245.999C696.362,245.999 688.179,242.798 681.856,236.979C679.309,234.653 677.175,232.043 675.459,229.225L645.641,228.725C625.773,228.381 609.835,211.957 610.091,192.12C610.34,177.649 619.136,165.202 631.538,159.595L631.637,104.184C619.259,98.437 610.642,85.888 610.642,71.353C610.642,51.424 626.858,35.205 646.784,35.205L680.77,35.205C687.26,27.327 697.034,22.201 708.027,21.986C708.027,21.986 749.814,21.271 749.978,21.271C769.585,21.271 785.804,37.216 786.137,56.826C786.351,71.14 778.219,83.659 766.266,89.713C766.508,128.976 766.652,153.648 766.726,169.903C777.683,175.555 785.462,186.674 786.3,199.729C787.572,219.633 772.438,236.862 752.553,238.133C736.15,239.207 725.686,241.063 722.752,241.895C722.18,242.131 721.609,242.344 721.024,242.532C717.398,243.913 711.924,245.999 704.883,245.999Z" style="fill:rgb(247,248,249);fill-rule:nonzero;"/>
                                    <path d="M758.149,201.547C757.868,197.184 754.093,193.854 749.723,194.137C746.772,194.336 742.894,194.629 738.576,195.092C738.59,181.533 738.449,154.215 737.906,65.553L750.123,65.381C754.487,65.307 757.991,61.673 757.927,57.298C757.859,52.928 754.247,49.423 749.871,49.485L708.576,50.186C704.182,50.282 700.708,53.875 700.783,58.26C700.838,62.636 704.463,66.145 708.826,66.059L722.015,65.82C722.14,83.171 722.233,101.876 722.346,120.798L675.68,128.599L675.765,79.307L688.448,79.307C692.84,79.307 696.403,75.747 696.403,71.353C696.403,66.979 692.84,63.419 688.448,63.419L646.782,63.419C642.401,63.419 638.858,66.979 638.858,71.353C638.858,75.747 642.401,79.307 646.782,79.307L659.895,79.307L659.707,184.884L646.361,184.652C641.991,184.578 638.38,188.076 638.301,192.494C638.249,196.838 641.727,200.439 646.107,200.515L688.968,201.234C693.348,201.296 696.955,197.795 697.024,193.42C697.09,189.024 693.598,185.43 689.231,185.371L675.564,185.152L675.649,144.672L722.446,136.861C722.603,166.765 722.722,186.709 722.722,197.363C711.912,199.408 704.667,200.258 700.27,205.193C697.411,208.425 697.746,213.291 700.946,216.201C704.134,219.139 707.687,217.383 712.17,215.722L712.111,215.763C716.69,213.685 731.795,211.21 750.739,209.984C755.112,209.696 758.43,205.928 758.149,201.547Z" style="fill:rgb(247,248,249);fill-rule:nonzero;"/>
                                    <path d="M415.525,204.538C407.673,204.534 400.198,202.052 393.91,197.335C392.546,196.333 391.273,195.243 390.079,194.087C385.584,196.081 380.606,197.196 375.385,197.196C374.842,197.196 374.3,197.184 373.754,197.157L334.194,195.284C314.314,194.36 298.863,177.427 299.763,157.546C300.634,138.212 316.496,123.044 335.89,123.044C336.054,123.044 336.221,123.044 336.387,123.047C338.203,113.948 342.634,91.731 342.848,90.661C329.749,86.534 319.676,75.123 317.789,60.945C315.198,41.204 329.099,23.014 348.756,20.336L382.716,15.667C384.33,15.448 385.984,15.334 387.607,15.334C397.56,15.334 407.171,19.501 413.996,26.779C416.478,29.41 420.048,34.577 421.96,39.146L451.765,111.189C451.905,111.521 452.066,111.897 452.244,112.335C452.336,112.334 452.439,112.334 452.528,112.334C467.741,112.334 481.416,121.948 486.562,136.272C493.244,154.992 483.508,175.701 464.866,182.479C452.955,186.733 445.329,190.635 442.577,192.375C435.765,200.041 425.869,204.539 415.528,204.539C415.528,204.538 415.528,204.538 415.525,204.538Z" style="fill:rgb(247,248,249);fill-rule:nonzero;"/>
                                    <path d="M449.861,141.012C447.511,141.846 442.966,144.127 435.916,147.225C435.916,147.225 426.064,122.649 425.715,122.04L395.888,49.927C395.591,49.158 393.927,46.619 393.413,46.073C391.649,44.191 389.091,43.267 386.557,43.619L352.554,48.294C348.212,48.884 345.194,52.883 345.757,57.215C346.339,61.569 350.323,64.591 354.674,64.033C354.674,64.033 367.33,62.214 377.585,60.829C374.645,75.29 362.933,134.405 359.261,152.379L336.247,151.262C331.876,151.073 328.148,154.442 327.947,158.832C327.758,163.199 331.157,166.894 335.529,167.098L375.018,168.971C379.389,169.16 383.103,165.783 383.322,161.424C383.519,157.024 380.962,153.063 375.306,153.063L377.121,140.969L413.809,134.889L421.663,154.309C415.683,157.731 411.948,159.893 409.151,163.647C406.537,167.184 407.287,172.141 410.813,174.743C414.307,177.366 419.292,176.628 421.916,173.106C425.441,168.352 440.427,161.252 455.226,155.956C459.34,154.466 461.477,149.915 460.003,145.798C458.529,141.69 453.971,139.538 449.861,141.012ZM380.505,128.227L390.234,80.607L407.682,123.719L380.505,128.227Z" style="fill:rgb(247,248,249);fill-rule:nonzero;"/>
                                    <path d="M471.605,227.219C452.021,227.219 435.802,211.26 435.464,191.655C435.221,175.598 445.493,161.809 459.886,156.864L459.865,146.184C458.795,146.442 457.704,146.655 456.602,146.821C454.825,147.094 453.008,147.229 451.227,147.229C433.203,147.229 418.177,134.282 415.495,116.457L409.445,77.543C407.84,67.23 410.815,56.708 417.61,48.692C424.305,40.711 434.239,36.033 444.775,35.913L495.251,35.069C519.776,34.604 541.66,33.058 542.84,32.976C543.009,32.952 543.179,32.942 543.354,32.934C544.134,32.887 544.916,32.855 545.689,32.855C555.36,32.855 564.764,36.798 571.503,43.671C578.763,50.963 582.552,61.267 581.755,71.766C581.074,80.761 580.859,94.983 580.828,98.432C581.231,113.071 573.226,126.316 560.194,132.391C555.373,134.662 549.915,135.906 544.519,135.906C540.23,135.906 536.041,135.123 532.147,133.68L532.191,156.37C545.904,161.388 555.844,174.505 556.056,189.854C556.207,199.514 552.551,208.674 545.777,215.608C539.014,222.532 529.965,226.407 520.292,226.495C520.293,226.497 471.739,227.219 471.605,227.219Z" style="fill:rgb(247,248,249);fill-rule:nonzero;"/>
                                    <path d="M545.174,61.084C544.928,61.118 521.698,62.784 495.721,63.283L445.094,64.128C442.793,64.145 440.624,65.152 439.144,66.931C437.661,68.662 436.98,70.957 437.325,73.217L443.391,112.258C444.051,116.592 448.079,119.569 452.412,118.928C456.354,118.336 459.169,114.948 459.169,111.084C459.169,110.72 455.981,90.728 454.368,79.851C456.427,79.841 487.951,79.277 487.951,79.277L488.156,182.906L471.485,183.121C467.109,183.197 463.607,186.805 463.672,191.164C463.758,195.562 467.341,199.06 471.705,199.006L520.029,198.283C524.403,198.242 527.911,194.607 527.853,190.244C527.785,185.849 524.18,182.377 519.807,182.41L504.026,182.652L503.821,78.97C517.482,78.589 529.175,77.939 537.188,77.501C536.785,84.094 536.589,89.066 536.589,92.681C536.589,101.165 537.496,102.775 538.187,103.971C540.205,107.638 544.486,108.61 548.272,106.821C551.218,105.453 552.798,102.147 552.611,98.902C552.603,98.769 552.761,80.997 553.624,69.635C553.794,67.317 552.983,65.062 551.35,63.419C549.742,61.778 547.462,60.942 545.174,61.084Z" style="fill:rgb(247,248,249);fill-rule:nonzero;"/>
                                    <path d="M175.126,243.215C134.42,243.205 111.007,212.793 108.765,182.578C108.696,181.656 108.669,180.877 108.663,180.258L108.375,165.59C108.375,165.463 108.663,143.623 108.663,143.623C108.665,142.943 108.697,142.187 108.75,141.408C110.842,112.332 120.911,92.04 138.686,81.105C147.163,75.881 156.784,73.233 167.252,73.233C170.848,73.233 174.281,73.558 177.47,74.063C184.097,66.569 193.782,61.836 204.553,61.836C224.489,61.836 240.696,78.055 240.696,97.993L240.696,132.343C240.696,136.045 240.131,139.652 239.057,143.072C243.888,148.988 246.9,156.449 247.19,164.57L247.412,168.742C247.444,169.248 247.454,169.758 247.454,170.273C247.454,170.363 247.349,180.017 246.859,183.658L246.861,183.658C245.804,191.047 243.538,201.631 238.729,210.029C235.411,215.857 231.918,220.004 228.904,223.441C222.296,230.834 214.865,234.882 208.444,237.88C197.707,242.948 188.411,243.034 181.623,243.099L177.481,243.181C176.698,243.202 175.913,243.216 175.133,243.216C175.13,243.215 175.128,243.215 175.126,243.215Z" style="fill:rgb(247,248,249);fill-rule:nonzero;"/>
                                    <path d="M210.958,157.924C206.61,158.004 203.155,161.559 203.155,165.869C203.155,165.912 203.372,169.996 203.372,170.33C203.368,170.652 203.197,176.875 203.17,177.787C202.67,181.064 201.53,186.289 200.454,188.146C199.269,190.232 197.942,191.876 195.786,194.3C194.557,195.72 191.547,197.142 189.737,197.966C187.705,198.927 185.758,198.972 181.145,199.017L176.301,199.095C155.668,199.728 153.071,182.993 152.738,179.292C152.731,178.749 152.473,165.937 152.451,165.687C152.473,165.423 152.738,144.998 152.738,144.414C153.737,130.789 156.936,121.623 161.788,118.665C165.506,116.333 171.481,116.969 180.027,120.529C190.549,124.934 197.728,136.376 197.773,136.499C199.641,139.504 203.291,140.946 206.699,139.965C210.12,139.008 212.483,135.906 212.483,132.342L212.483,97.992C212.483,93.606 208.923,90.05 204.555,90.05C200.154,90.05 196.616,93.606 196.616,97.992L196.616,112.093C193.533,109.704 190.035,107.495 186.135,105.888C181.145,103.8 165.909,97.472 153.474,105.134C143.731,111.125 138.311,123.665 136.89,143.453C136.879,143.609 136.879,143.758 136.879,143.885L136.59,165.59L136.59,165.869L136.879,179.885C136.879,180.012 136.879,180.127 136.89,180.227C137.72,192.665 147.108,215.866 176.792,214.977L181.247,214.887C186.604,214.836 191.223,214.813 196.491,212.33C200.264,210.568 204.522,208.379 207.706,204.812C209.988,202.224 212.208,199.591 214.24,196.021C217.296,190.673 218.68,181.445 218.934,179.666C218.978,179.365 219.241,170.377 219.241,170.271L219.004,165.742C218.933,161.358 215.321,157.842 210.958,157.924Z" style="fill:rgb(247,248,249);fill-rule:nonzero;"/>
                                </g>
                                <path d="M77.193,126.732C68.091,125.31 63.273,119.25 65.666,100.41L65.955,98.135C67.975,81.749 69.709,78.165 77.523,78.568C79.86,78.715 82.515,80.162 85.186,82.343C87.594,85.181 93.107,88.866 96.142,96.191C98.367,101.527 99.125,105.006 99.406,108.756C99.432,108.876 99.935,113.354 99.935,113.354L99.94,113.351C100.54,116.485 103.002,119.07 106.328,119.67C110.624,120.439 114.757,117.579 115.534,113.27C115.6,112.778 117.56,63.196 117.572,62.374C117.597,58.009 114.075,54.456 109.707,54.407C105.304,54.399 101.737,57.928 101.718,62.316C101.718,62.408 101.68,69.213 101.557,76.126C95.341,69.33 87.318,63.243 78.397,62.74C54.386,61.422 51.78,83.474 50.221,96.2L49.942,98.433C46.75,123.501 55.106,139.347 74.761,142.417C96.144,145.786 110.423,150.702 110.558,163.858C110.613,168.94 107.945,174.184 103.222,178.233C97.595,183.059 89.984,185.215 82.898,184.022C80.695,183.667 78.598,183.11 76.634,182.409C73.794,180.864 66.755,176.587 63.177,171.626C60.153,167.442 59.125,160.862 58.79,156.704C58.831,154.85 58.852,153.61 58.86,153.442C58.909,149.083 55.418,145.495 51.036,145.411C46.659,145.331 43.032,148.829 42.975,153.229C42.975,153.379 42.737,168.895 42.217,178.254C41.387,193.311 42.195,206.086 42.217,206.629C42.521,211.006 46.275,214.33 50.649,214.039C55.041,213.766 58.334,209.986 58.066,205.627C58.066,205.51 57.664,199.373 57.721,190.787C63.516,194.517 71.116,198.135 80.286,199.683C92.113,201.66 104.23,198.247 113.526,190.281C121.825,183.181 126.538,173.48 126.437,163.693C126.117,134.392 93.1,129.235 77.193,126.732Z" style="fill:rgb(249,167,55);fill-rule:nonzero;"/>
                                <path d="M342.729,174.561C338.528,173.272 334.066,175.635 332.799,179.799C329.9,189.221 327.587,189.572 325.976,190.338C324.385,191.108 322.233,190.881 318.785,189.539C318.255,189.225 316.818,187.359 315.998,185.619C314.761,182.959 313.306,171.91 313.169,165.601C312.56,142.306 308.511,129.504 301.969,122.443C306.385,119.541 309.599,115.77 309.956,115.293C310.014,115.231 310.062,115.183 310.118,115.104C319.847,102.491 322.15,91.593 316.98,82.753C304.008,60.666 247.028,67.218 229.875,69.752C225.523,70.379 222.542,74.43 223.197,78.756C223.806,83.11 227.848,86.088 232.182,85.432C236.247,84.837 240.409,84.343 244.591,83.955L244.748,120.895C243.428,120.974 242.117,121.014 240.824,121.014C236.449,121.014 232.892,124.543 232.892,128.937C232.892,133.3 236.449,136.873 240.824,136.873C242.144,136.873 243.47,136.836 244.826,136.777L244.993,182.959L234.072,184.549C229.738,185.182 226.74,189.225 227.385,193.539C227.999,197.889 232.034,200.887 236.366,200.266L274.65,194.647C278.969,194.014 281.98,189.993 281.339,185.672C280.711,181.318 276.664,178.322 272.347,178.928L260.855,180.631L260.647,135.113C268.219,133.888 275.428,132.251 281.451,130.416L281.464,130.416C281.507,130.404 283.205,130.188 284.252,130.37C287.444,130.912 289.2,131.492 291.043,134.103C293.626,137.705 296.81,146.176 297.301,166.008C297.398,169.83 298.407,185.465 301.618,192.336C302.618,194.51 306.458,201.779 313.076,204.338C317.948,206.242 325.295,208.277 332.917,204.615C339.958,201.181 344.338,196.193 347.969,184.498C349.266,180.305 346.908,175.856 342.729,174.561ZM297.625,103.725C296.919,104.55 294.895,106.687 292.789,107.942C290.839,109.088 288.174,109.883 285.602,110.671L281.57,111.957C275.977,113.947 268.573,116.029 260.61,117.489L260.464,81.403C281.444,80.825 299.751,83.177 303.289,89.237C303.616,89.757 303.755,90.422 303.755,91.21C303.754,94.107 301.597,98.583 297.625,103.725Z" style="fill:rgb(249,167,55);fill-rule:nonzero;"/>
                                <path d="M628.039,149.606C623.721,149.661 620.263,153.21 620.263,157.536C620.263,157.579 620.475,160.1 620.475,160.421C620.475,160.739 620.304,167.005 620.278,167.894C619.774,171.173 618.623,176.398 617.549,178.255C616.358,180.337 615.113,181.9 612.905,184.417C611.663,185.829 608.646,187.235 606.844,188.097C604.807,189.036 602.843,189.074 598.23,189.124L593.405,189.186C572.773,189.85 570.167,173.067 569.835,169.393C569.825,168.85 569.586,156.057 569.586,155.78C569.586,155.528 569.825,135.107 569.835,134.524C570.83,120.896 574.042,111.731 578.887,108.769C582.621,106.441 588.588,107.071 597.14,110.636C607.662,115.024 614.82,126.5 614.896,126.592C616.751,129.612 620.401,131.017 623.802,130.073C627.222,129.106 629.581,126.014 629.581,122.456L629.581,88.075C629.581,83.715 626.042,80.152 621.638,80.152C617.285,80.152 613.699,83.715 613.699,88.075L613.699,102.201C610.628,99.81 607.119,97.618 603.238,95.993C598.231,93.899 583.005,87.555 570.564,95.241C560.819,101.237 555.409,113.776 554,133.555C553.99,133.699 553.692,155.701 553.692,155.701C553.692,155.701 553.99,170.24 554,170.34C554.821,182.752 564.218,205.994 593.896,205.041L598.348,204.992C603.713,204.945 608.323,204.91 613.591,202.435C617.346,200.673 621.638,198.47 624.798,194.921C627.082,192.337 629.291,189.7 631.343,186.12C634.39,180.774 635.798,171.546 636.045,169.766C636.078,169.479 636.335,160.719 636.335,160.719C636.359,160.596 636.112,157.401 636.112,157.401C636.045,153.042 632.44,149.53 628.039,149.606Z" style="fill:rgb(249,167,55);fill-rule:nonzero;"/>
                                <path d="M758.149,201.547C757.868,197.184 754.093,193.854 749.723,194.137C746.772,194.336 742.894,194.629 738.576,195.092C738.59,181.533 738.449,154.215 737.906,65.553L750.123,65.381C754.487,65.307 757.991,61.673 757.927,57.298C757.859,52.928 754.247,49.423 749.871,49.485L708.576,50.186C704.182,50.282 700.708,53.875 700.783,58.26C700.838,62.636 704.463,66.145 708.826,66.059L722.015,65.82C722.14,83.171 722.233,101.876 722.346,120.798L675.68,128.599L675.765,79.307L688.448,79.307C692.84,79.307 696.403,75.747 696.403,71.353C696.403,66.979 692.84,63.419 688.448,63.419L646.782,63.419C642.401,63.419 638.858,66.979 638.858,71.353C638.858,75.747 642.401,79.307 646.782,79.307L659.895,79.307L659.707,184.884L646.361,184.652C641.991,184.578 638.38,188.076 638.301,192.494C638.249,196.838 641.727,200.439 646.107,200.515L688.968,201.234C693.348,201.296 696.955,197.795 697.024,193.42C697.09,189.024 693.598,185.43 689.231,185.371L675.564,185.152L675.649,144.672L722.446,136.861C722.603,166.765 722.722,186.709 722.722,197.363C711.912,199.408 704.667,200.258 700.27,205.193C697.411,208.425 697.746,213.291 700.946,216.201C704.134,219.139 707.687,217.383 712.17,215.722L712.111,215.763C716.69,213.685 731.795,211.21 750.739,209.984C755.112,209.696 758.43,205.928 758.149,201.547Z" style="fill:rgb(249,167,55);fill-rule:nonzero;"/>
                                <path d="M449.861,141.012C447.511,141.846 442.966,144.127 435.916,147.225C435.916,147.225 426.064,122.649 425.715,122.04L395.888,49.927C395.591,49.158 393.927,46.619 393.413,46.073C391.649,44.191 389.091,43.267 386.557,43.619L352.554,48.294C348.212,48.884 345.194,52.883 345.757,57.215C346.339,61.569 350.323,64.591 354.674,64.033C354.674,64.033 367.33,62.214 377.585,60.829C374.645,75.29 362.933,134.405 359.261,152.379L336.247,151.262C331.876,151.073 328.148,154.442 327.947,158.832C327.758,163.199 331.157,166.894 335.529,167.098L375.018,168.971C379.389,169.16 383.103,165.783 383.322,161.424C383.519,157.024 380.962,153.063 375.306,153.063L377.121,140.969L413.809,134.889L421.663,154.309C415.683,157.731 411.948,159.893 409.151,163.647C406.537,167.184 407.287,172.141 410.813,174.743C414.307,177.366 419.292,176.628 421.916,173.106C425.441,168.352 440.427,161.252 455.226,155.956C459.34,154.466 461.477,149.915 460.003,145.798C458.529,141.69 453.971,139.538 449.861,141.012ZM380.505,128.227L390.234,80.607L407.682,123.719L380.505,128.227Z" style="fill:rgb(249,167,55);fill-rule:nonzero;"/>
                                <path d="M545.174,61.084C544.928,61.118 521.698,62.784 495.721,63.283L445.094,64.128C442.793,64.145 440.624,65.152 439.144,66.931C437.661,68.662 436.98,70.957 437.325,73.217L443.391,112.258C444.051,116.592 448.079,119.569 452.412,118.928C456.354,118.336 459.169,114.948 459.169,111.084C459.169,110.72 455.981,90.728 454.368,79.851C456.427,79.841 487.951,79.277 487.951,79.277L488.156,182.906L471.485,183.121C467.109,183.197 463.607,186.805 463.672,191.164C463.758,195.562 467.341,199.06 471.705,199.006L520.029,198.283C524.403,198.242 527.911,194.607 527.853,190.244C527.785,185.849 524.18,182.377 519.807,182.41L504.026,182.652L503.821,78.97C517.482,78.589 529.175,77.939 537.188,77.501C536.785,84.094 536.589,89.066 536.589,92.681C536.589,101.165 537.496,102.775 538.187,103.971C540.205,107.638 544.486,108.61 548.272,106.821C551.218,105.453 552.798,102.147 552.611,98.902C552.603,98.769 552.761,80.997 553.624,69.635C553.794,67.317 552.983,65.062 551.35,63.419C549.742,61.778 547.462,60.942 545.174,61.084Z" style="fill:rgb(249,167,55);fill-rule:nonzero;"/>
                                <path d="M210.958,157.924C206.61,158.004 203.155,161.559 203.155,165.869C203.155,165.912 203.372,169.996 203.372,170.33C203.368,170.652 203.197,176.875 203.17,177.787C202.67,181.064 201.53,186.289 200.454,188.146C199.269,190.232 197.942,191.876 195.786,194.3C194.557,195.72 191.547,197.142 189.737,197.966C187.705,198.927 185.758,198.972 181.145,199.017L176.301,199.095C155.668,199.728 153.071,182.993 152.738,179.292C152.731,178.749 152.473,165.937 152.451,165.687C152.473,165.423 152.738,144.998 152.738,144.414C153.737,130.789 156.936,121.623 161.788,118.665C165.506,116.333 171.481,116.969 180.027,120.529C190.549,124.934 197.728,136.376 197.773,136.499C199.641,139.504 203.291,140.946 206.699,139.965C210.12,139.008 212.483,135.906 212.483,132.342L212.483,97.992C212.483,93.606 208.923,90.05 204.555,90.05C200.154,90.05 196.616,93.606 196.616,97.992L196.616,112.093C193.533,109.704 190.035,107.495 186.135,105.888C181.145,103.8 165.909,97.472 153.474,105.134C143.731,111.125 138.311,123.665 136.89,143.453C136.879,143.609 136.879,143.758 136.879,143.885L136.59,165.59L136.59,165.869L136.879,179.885C136.879,180.012 136.879,180.127 136.89,180.227C137.72,192.665 147.108,215.866 176.792,214.977L181.247,214.887C186.604,214.836 191.223,214.813 196.491,212.33C200.264,210.568 204.522,208.379 207.706,204.812C209.988,202.224 212.208,199.591 214.24,196.021C217.296,190.673 218.68,181.445 218.934,179.666C218.978,179.365 219.241,170.377 219.241,170.271L219.004,165.742C218.933,161.358 215.321,157.842 210.958,157.924Z" style="fill:rgb(249,167,55);fill-rule:nonzero;"/>
                            </g>
                        </g>
                    </g>
                </g>
            </g>
            <g transform="matrix(0.779233,0,0,0.779233,126.052,34.5823)">
                <text x="551.075px" y="101.358px" style="font-family:'Consolas', monospace;font-size:93.399px;fill:rgb(40,165,218);">Andreto</text>
            </g>
            <g transform="matrix(0.577136,0,0,0.577136,435.138,18.8764)">
                <path d="M60.844,56.295L119.297,110.662L64.787,165.172C50.306,150.691 41.345,130.691 41.345,108.614C41.345,88.618 48.697,70.325 60.844,56.295ZM64.787,52.057C79.268,37.576 99.268,28.614 121.345,28.614C165.498,28.614 201.345,64.461 201.345,108.614C201.345,130.691 192.383,150.691 177.902,165.172L121.345,108.614L64.787,52.057Z" style="fill:rgb(40,165,218);"/>
            </g>
        </g>
    </g>
</svg>
